<?xml version="1.0"?>
<svg xmlns="http://www.w3.org/2000/svg" viewBox="0 0 64 64" width="512" height="512"><title>Prototyping-Mockup-3d-model-dimension</title><g id="Flat"><path d="M7,28H57a0,0,0,0,1,0,0V54a3,3,0,0,1-3,3H10a3,3,0,0,1-3-3V28A0,0,0,0,1,7,28Z" style="fill:#dfd9d3"/><rect x="19" y="46" width="2" height="2" style="fill:#b4b0aa"/><rect x="23" y="46" width="24" height="2" style="fill:#b4b0aa"/><rect x="15" y="60" width="2" height="2" style="fill:#b4b0aa"/><rect x="19" y="60" width="24" height="2" style="fill:#b4b0aa"/><rect x="17" y="50" width="27" height="2" style="fill:#b4b0aa"/><rect x="60" y="31" width="2" height="20" style="fill:#b4b0aa"/><rect x="15" y="19" width="2" height="2" style="fill:#b4b0aa"/><path d="M17,17H15V9a1,1,0,0,1,.5-.864L25.5,2.3,26.5,4.031,17,9.574Z" style="fill:#b4b0aa"/><path d="M7,26a3,3,0,0,1,3-3h3V51H10a3,3,0,0,0-3,3Z" style="fill:#56a8c6"/><path d="M57,26a3,3,0,0,0-3-3H51V51h3a3,3,0,0,1,3,3Z" style="fill:#56a8c6"/><polygon points="44 36 32 43 32 18 44 11 44 36" style="fill:#80c5d4"/><polygon points="20 36 32 43 32 18 20 11 20 36" style="fill:#196aaf"/><polygon points="44 11 32 18 20 11 32 4 44 11" style="fill:#56a8c6"/><polygon points="36 11 32 13.333 28 11 32 8.667 36 11" style="fill:#196aaf"/><path d="M23.373,35.189l-1.008-1.726,2.237-1.3,1.007,1.727ZM27.4,32.841l-1.008-1.727,2.236-1.3,1.008,1.726Z" style="fill:#56a8c6"/><path d="M40.627,35.19l-2.236-1.3L39.4,32.159l2.236,1.3ZM36.6,32.842l-2.237-1.3,1.008-1.726,2.236,1.3Z" style="fill:#56a8c6"/></g></svg>
