<svg id="Capa_1" enable-background="new 0 0 512 512" height="512" viewBox="0 0 512 512" width="512" xmlns="http://www.w3.org/2000/svg"><path d="m435.809 82.252h-302.039l-35.355-29.295 35.355-29.294h302.039z" fill="#f4dd45"/><path d="m98.415 52.957 12.888-10.679 21.911 18.155c3.624 3.003 8.183 4.646 12.89 4.646h289.706v17.173h-302.04z" fill="#ecc32e"/><path d="m435.809 23.663h68.691v58.589h-68.691z" fill="#e27a66"/><path d="m435.809 65.079h68.691v17.173h-68.691z" fill="#dd544f"/><path d="m58.008 488.337c-27.895 0-50.508-22.613-50.508-50.508s22.613-50.508 50.508-50.508v-264.662h446.492v365.679h-446.492z" fill="#e4f6ff"/><path d="m486.317 122.659v337.394c0 5.579-4.523 10.102-10.102 10.102h-417.563c-18.086 0-33.273-14.801-32.964-32.884.3-17.567 14.683-31.766 32.32-31.766h8.081c5.579 0 10.102-4.523 10.102-10.102v-272.744h-18.183v264.663c-28.182 0-50.973 23.081-50.501 51.371.462 27.694 23.635 49.645 51.332 49.645h445.661v-365.679z" fill="#d3effb"/><path d="m7.5 437.829c0-27.895 22.613-50.508 50.508-50.508v-321.232c-27.895 0-50.508 22.614-50.508 50.509z" fill="#efecef"/><path d="m439.85 305.498s-73.267 111.118-163.646 111.118-163.647-111.118-163.647-111.118 73.267-111.118 163.646-111.118 163.647 111.118 163.647 111.118z" fill="#efecef"/><path d="m424.292 284.787c-16.719 23.28-88.31 115.423-174.097 115.423-20.293 0-39.787-5.165-57.954-13.346 24.548 16.929 53.266 29.752 83.962 29.752 90.38 0 163.646-111.118 163.646-111.118s-5.585-8.464-15.557-20.711z" fill="#d3ced5"/><circle cx="276.203" cy="305.498" fill="#90d8f9" r="62.63"/><path d="m314.008 255.571c7.969 10.507 12.703 23.601 12.703 37.805 0 34.59-28.04 62.63-62.63 62.63-14.204 0-27.298-4.735-37.805-12.703 11.437 15.08 29.541 24.825 49.927 24.825 34.59 0 62.63-28.04 62.63-62.63 0-20.386-9.745-38.49-24.825-49.927z" fill="#75cef9"/><circle cx="276.203" cy="305.498" fill="#665e66" r="25.254"/><path d="m504.5 16.163h-184.937c-4.143 0-7.5 3.357-7.5 7.5s3.357 7.5 7.5 7.5h108.746v14.294h-281.407c-4.143 0-7.5 3.357-7.5 7.5s3.357 7.5 7.5 7.5h281.406v14.295h-291.834l-26.304-21.795 26.304-21.794h148.058c4.143 0 7.5-3.357 7.5-7.5s-3.357-7.5-7.5-7.5h-150.761c-1.747 0-3.439.61-4.785 1.725l-35.356 29.294c-1.72 1.425-2.715 3.542-2.715 5.775s.995 4.351 2.715 5.775l35.355 29.295c1.346 1.114 3.038 1.725 4.785 1.725h370.73c4.143 0 7.5-3.357 7.5-7.5v-58.589c0-4.142-3.357-7.5-7.5-7.5zm-7.5 58.589h-53.691v-43.589h53.691z"/><path d="m124.583 480.837h-66.575c-23.715 0-43.008-19.293-43.008-43.008s19.293-43.008 43.008-43.008c4.143 0 7.5-3.357 7.5-7.5v-257.163h338.992c4.143 0 7.5-3.357 7.5-7.5s-3.357-7.5-7.5-7.5h-338.992v-49.068c0-4.143-3.357-7.5-7.5-7.5-31.986 0-58.008 26.022-58.008 58.008v321.231c0 31.985 26.022 58.008 58.008 58.008h66.575c4.143 0 7.5-3.357 7.5-7.5s-3.357-7.5-7.5-7.5zm-109.583-364.239c0-21.157 15.356-38.795 35.508-42.354v306.06c-14.011 1.817-26.471 8.652-35.508 18.639z"/><path d="m504.5 115.158h-64.979c-4.143 0-7.5 3.357-7.5 7.5s3.357 7.5 7.5 7.5h57.479v350.679h-337.333c-4.143 0-7.5 3.357-7.5 7.5s3.357 7.5 7.5 7.5h344.833c4.143 0 7.5-3.357 7.5-7.5v-365.679c0-4.142-3.357-7.5-7.5-7.5z"/><path d="m397.05 366.527c29.914-28.062 48.293-55.736 49.062-56.9 1.651-2.505 1.651-5.753 0-8.258-.769-1.164-19.147-28.839-49.062-56.9-40.163-37.675-81.951-57.589-120.847-57.589s-80.684 19.914-120.847 57.589c-29.914 28.062-48.293 55.736-49.062 56.9-1.651 2.505-1.651 5.753 0 8.258.769 1.164 19.147 28.839 49.062 56.9 40.163 37.675 81.951 57.589 120.847 57.589s80.684-19.914 120.847-57.589zm-275.348-61.032c14.184-19.769 78.827-103.615 154.501-103.615 75.577 0 140.305 83.861 154.501 103.621-14.184 19.769-78.826 103.615-154.501 103.615-75.576 0-140.305-83.861-154.501-103.621z"/><path d="m308.957 305.498c0-18.061-14.693-32.754-32.754-32.754s-32.754 14.693-32.754 32.754 14.693 32.754 32.754 32.754 32.754-14.693 32.754-32.754zm-50.508 0c0-9.789 7.965-17.754 17.754-17.754s17.754 7.965 17.754 17.754-7.965 17.754-17.754 17.754-17.754-7.965-17.754-17.754z"/><path d="m346.333 305.498c0-38.67-31.46-70.13-70.13-70.13s-70.13 31.46-70.13 70.13 31.46 70.13 70.13 70.13 70.13-31.46 70.13-70.13zm-125.26 0c0-30.398 24.731-55.13 55.13-55.13s55.13 24.731 55.13 55.13-24.731 55.13-55.13 55.13-55.13-24.732-55.13-55.13z"/><path d="m441.87 149.504h-88.895c-4.143 0-7.5 3.357-7.5 7.5s3.357 7.5 7.5 7.5h88.895c4.143 0 7.5-3.357 7.5-7.5s-3.357-7.5-7.5-7.5z"/><path d="m441.87 179.809h-38.387c-4.143 0-7.5 3.357-7.5 7.5s3.357 7.5 7.5 7.5h38.387c4.143 0 7.5-3.357 7.5-7.5s-3.357-7.5-7.5-7.5z"/><path d="m68.109 449.37h88.895c4.143 0 7.5-3.357 7.5-7.5s-3.357-7.5-7.5-7.5h-88.895c-4.143 0-7.5 3.357-7.5 7.5s3.358 7.5 7.5 7.5z"/><path d="m68.109 419.065h38.387c4.143 0 7.5-3.357 7.5-7.5s-3.357-7.5-7.5-7.5h-38.387c-4.143 0-7.5 3.357-7.5 7.5s3.358 7.5 7.5 7.5z"/></svg>